<svg width="256" height="39" viewBox="0 0 256 39" fill="none" xmlns="http://www.w3.org/2000/svg">
<path d="M10.64 2.72C11.32 2.32 12.34 1.94 13.7 1.58C15.1 1.22 16.5 1.04 17.9 1.04C19.9 1.04 21.66 1.34 23.18 1.94C24.74 2.5 25.74 3.4 26.18 4.64C26.9 6.72 27.68 9.14 28.52 11.9C29.36 14.66 30.2 17.52 31.04 20.48C31.88 23.4 32.7 26.3 33.5 29.18C34.3 32.02 35 34.54 35.6 36.74C35.12 37.3 34.4 37.74 33.44 38.06C32.48 38.42 31.34 38.6 30.02 38.6C29.06 38.6 28.24 38.52 27.56 38.36C26.92 38.2 26.38 37.96 25.94 37.64C25.54 37.32 25.2 36.9 24.92 36.38C24.68 35.86 24.46 35.26 24.26 34.58L23.18 30.44H12.32C12 31.64 11.68 32.88 11.36 34.16C11.04 35.44 10.72 36.68 10.4 37.88C9.84 38.08 9.24 38.24 8.6 38.36C8 38.52 7.26 38.6 6.38 38.6C4.34 38.6 2.82 38.26 1.82 37.58C0.86 36.86 0.38 35.88 0.38 34.64C0.38 34.08 0.46 33.52 0.62 32.96C0.78 32.4 0.96 31.74 1.16 30.98C1.44 29.9 1.82 28.56 2.3 26.96C2.82 25.36 3.38 23.64 3.98 21.8C4.58 19.92 5.22 18 5.9 16.04C6.58 14.08 7.22 12.24 7.82 10.52C8.42 8.76 8.96 7.2 9.44 5.84C9.96 4.48 10.36 3.44 10.64 2.72ZM17.84 10.46C17.28 12.14 16.64 14.02 15.92 16.1C15.24 18.14 14.62 20.22 14.06 22.34H21.5C20.94 20.18 20.36 18.08 19.76 16.04C19.2 13.96 18.68 12.1 18.2 10.46H17.84ZM73.4572 36.74C72.8972 37.3 72.0772 37.72 70.9972 38C69.9572 38.32 68.6972 38.48 67.2172 38.48C65.7372 38.48 64.3372 38.26 63.0172 37.82C61.6972 37.38 60.6172 36.32 59.7772 34.64L53.8372 22.52C53.2372 21.28 52.6972 20.12 52.2172 19.04C51.7372 17.92 51.2172 16.64 50.6572 15.2L50.2972 15.26C50.4572 17.42 50.5372 19.62 50.5372 21.86C50.5772 24.1 50.5972 26.3 50.5972 28.46V37.76C50.1572 37.88 49.4772 38 48.5572 38.12C47.6772 38.24 46.7972 38.3 45.9172 38.3C45.0372 38.3 44.2572 38.24 43.5772 38.12C42.8972 38 42.3372 37.76 41.8972 37.4C41.4572 37.04 41.1172 36.56 40.8772 35.96C40.6372 35.32 40.5172 34.5 40.5172 33.5V3.5C41.0772 2.7 41.9372 2.1 43.0972 1.7C44.2572 1.3 45.4972 1.1 46.8172 1.1C48.2972 1.1 49.6972 1.34 51.0172 1.82C52.3772 2.26 53.4572 3.3 54.2572 4.94L60.2572 17.06C60.8572 18.3 61.3972 19.48 61.8772 20.6C62.3572 21.68 62.8772 22.94 63.4372 24.38L63.7372 24.32C63.5772 22.16 63.4772 20 63.4372 17.84C63.3972 15.68 63.3772 13.52 63.3772 11.36V1.64C63.8172 1.52 64.4772 1.4 65.3572 1.28C66.2772 1.16 67.1772 1.1 68.0572 1.1C69.8172 1.1 71.1572 1.42 72.0772 2.06C72.9972 2.66 73.4572 3.94 73.4572 5.9V36.74ZM91.7398 37.76C91.2998 37.88 90.5998 38 89.6398 38.12C88.7198 38.24 87.7998 38.3 86.8798 38.3C85.9598 38.3 85.1398 38.22 84.4198 38.06C83.7398 37.94 83.1598 37.7 82.6798 37.34C82.1998 36.98 81.8398 36.48 81.5998 35.84C81.3598 35.2 81.2398 34.36 81.2398 33.32V1.64C81.6798 1.56 82.3798 1.46 83.3398 1.34C84.2998 1.18 85.2198 1.1 86.0998 1.1C87.0198 1.1 87.8198 1.18 88.4998 1.34C89.2198 1.46 89.8198 1.7 90.2998 2.06C90.7798 2.42 91.1398 2.92 91.3798 3.56C91.6198 4.2 91.7398 5.04 91.7398 6.08V37.76ZM109.961 26.24V37.76C109.521 37.88 108.821 38 107.861 38.12C106.941 38.24 106.021 38.3 105.101 38.3C104.181 38.3 103.361 38.22 102.641 38.06C101.961 37.94 101.381 37.7 100.901 37.34C100.461 36.98 100.121 36.48 99.8811 35.84C99.6411 35.2 99.5211 34.36 99.5211 33.32V5.06C99.5211 4.22 99.7411 3.58 100.181 3.14C100.661 2.66 101.301 2.28 102.101 2C103.461 1.52 105.041 1.18 106.841 0.979997C108.641 0.739998 110.561 0.619998 112.601 0.619998C118.121 0.619998 122.281 1.78 125.081 4.1C127.881 6.42 129.281 9.56 129.281 13.52C129.281 16 128.641 18.12 127.361 19.88C126.081 21.64 124.561 23 122.801 23.96C124.241 25.92 125.661 27.76 127.061 29.48C128.461 31.2 129.561 32.76 130.361 34.16C129.961 35.56 129.221 36.64 128.141 37.4C127.101 38.12 125.921 38.48 124.601 38.48C123.721 38.48 122.961 38.38 122.321 38.18C121.681 37.98 121.121 37.7 120.641 37.34C120.161 36.98 119.721 36.54 119.321 36.02C118.921 35.5 118.541 34.94 118.181 34.34L113.141 26.24H109.961ZM113.741 18.26C115.261 18.26 116.461 17.88 117.341 17.12C118.221 16.32 118.661 15.16 118.661 13.64C118.661 12.12 118.161 10.98 117.161 10.22C116.201 9.42 114.661 9.02 112.541 9.02C111.941 9.02 111.461 9.04 111.101 9.08C110.741 9.12 110.341 9.18 109.901 9.26V18.26H113.741ZM146.584 37.76C146.144 37.88 145.444 38 144.484 38.12C143.564 38.24 142.644 38.3 141.724 38.3C140.804 38.3 139.984 38.22 139.264 38.06C138.584 37.94 138.004 37.7 137.524 37.34C137.044 36.98 136.684 36.48 136.444 35.84C136.204 35.2 136.084 34.36 136.084 33.32V1.64C136.524 1.56 137.224 1.46 138.184 1.34C139.144 1.18 140.064 1.1 140.944 1.1C141.864 1.1 142.664 1.18 143.344 1.34C144.064 1.46 144.664 1.7 145.144 2.06C145.624 2.42 145.984 2.92 146.224 3.56C146.464 4.2 146.584 5.04 146.584 6.08V37.76ZM173.445 37.76C173.005 37.88 172.325 38 171.405 38.12C170.485 38.24 169.585 38.3 168.705 38.3C166.865 38.3 165.485 38 164.565 37.4C163.645 36.76 163.185 35.44 163.185 33.44V25.34C162.185 23.86 161.105 22.22 159.945 20.42C158.785 18.62 157.645 16.78 156.525 14.9C155.405 13.02 154.365 11.18 153.405 9.38C152.445 7.54 151.665 5.86 151.065 4.34C151.585 3.62 152.285 2.96 153.165 2.36C154.085 1.76 155.205 1.46 156.525 1.46C158.085 1.46 159.345 1.78 160.305 2.42C161.305 3.06 162.245 4.26 163.125 6.02L168.105 16.04H168.465C169.025 14.8 169.505 13.68 169.905 12.68C170.345 11.64 170.765 10.62 171.165 9.62C171.565 8.58 171.985 7.52 172.425 6.44C172.865 5.32 173.365 4.04 173.925 2.6C174.645 2.24 175.445 1.96 176.325 1.76C177.205 1.56 178.045 1.46 178.845 1.46C180.245 1.46 181.425 1.84 182.385 2.6C183.385 3.32 183.885 4.42 183.885 5.9C183.885 6.38 183.785 6.96 183.585 7.64C183.385 8.32 182.925 9.36 182.205 10.76C181.485 12.12 180.425 13.98 179.025 16.34C177.665 18.7 175.805 21.78 173.445 25.58V37.76ZM194.449 2.72C195.129 2.32 196.149 1.94 197.509 1.58C198.909 1.22 200.309 1.04 201.709 1.04C203.709 1.04 205.469 1.34 206.989 1.94C208.549 2.5 209.549 3.4 209.989 4.64C210.709 6.72 211.489 9.14 212.329 11.9C213.169 14.66 214.009 17.52 214.849 20.48C215.689 23.4 216.509 26.3 217.309 29.18C218.109 32.02 218.809 34.54 219.409 36.74C218.929 37.3 218.209 37.74 217.249 38.06C216.289 38.42 215.149 38.6 213.829 38.6C212.869 38.6 212.049 38.52 211.369 38.36C210.729 38.2 210.189 37.96 209.749 37.64C209.349 37.32 209.009 36.9 208.729 36.38C208.489 35.86 208.269 35.26 208.069 34.58L206.989 30.44H196.129C195.809 31.64 195.489 32.88 195.169 34.16C194.849 35.44 194.529 36.68 194.209 37.88C193.649 38.08 193.049 38.24 192.409 38.36C191.809 38.52 191.069 38.6 190.189 38.6C188.149 38.6 186.629 38.26 185.629 37.58C184.669 36.86 184.189 35.88 184.189 34.64C184.189 34.08 184.269 33.52 184.429 32.96C184.589 32.4 184.769 31.74 184.969 30.98C185.249 29.9 185.629 28.56 186.109 26.96C186.629 25.36 187.189 23.64 187.789 21.8C188.389 19.92 189.029 18 189.709 16.04C190.389 14.08 191.029 12.24 191.629 10.52C192.229 8.76 192.769 7.2 193.249 5.84C193.769 4.48 194.169 3.44 194.449 2.72ZM201.649 10.46C201.089 12.14 200.449 14.02 199.729 16.1C199.049 18.14 198.429 20.22 197.869 22.34H205.309C204.749 20.18 204.169 18.08 203.569 16.04C203.009 13.96 202.489 12.1 202.009 10.46H201.649ZM234.766 26.24V37.76C234.326 37.88 233.626 38 232.666 38.12C231.746 38.24 230.826 38.3 229.906 38.3C228.986 38.3 228.166 38.22 227.446 38.06C226.766 37.94 226.186 37.7 225.706 37.34C225.266 36.98 224.926 36.48 224.686 35.84C224.446 35.2 224.326 34.36 224.326 33.32V5.06C224.326 4.22 224.546 3.58 224.986 3.14C225.466 2.66 226.106 2.28 226.906 2C228.266 1.52 229.846 1.18 231.646 0.979997C233.446 0.739998 235.366 0.619998 237.406 0.619998C242.926 0.619998 247.086 1.78 249.886 4.1C252.686 6.42 254.086 9.56 254.086 13.52C254.086 16 253.446 18.12 252.166 19.88C250.886 21.64 249.366 23 247.606 23.96C249.046 25.92 250.466 27.76 251.866 29.48C253.266 31.2 254.366 32.76 255.166 34.16C254.766 35.56 254.026 36.64 252.946 37.4C251.906 38.12 250.726 38.48 249.406 38.48C248.526 38.48 247.766 38.38 247.126 38.18C246.486 37.98 245.926 37.7 245.446 37.34C244.966 36.98 244.526 36.54 244.126 36.02C243.726 35.5 243.346 34.94 242.986 34.34L237.946 26.24H234.766ZM238.546 18.26C240.066 18.26 241.266 17.88 242.146 17.12C243.026 16.32 243.466 15.16 243.466 13.64C243.466 12.12 242.966 10.98 241.966 10.22C241.006 9.42 239.466 9.02 237.346 9.02C236.746 9.02 236.266 9.04 235.906 9.08C235.546 9.12 235.146 9.18 234.706 9.26V18.26H238.546Z" fill="black"/>
</svg>
